<?xml version="1.0" encoding="UTF-8" standalone="no"?>
<svg
   width="549.90948"
   height="335.39111"
   fill-rule="evenodd"
   image-rendering="optimizeQuality"
   shape-rendering="geometricPrecision"
   text-rendering="geometricPrecision"
   viewBox="0 0 7274.6426 5777.3744"
   version="1.1"
   id="svg6"
   sodipodi:docname="delete.svg"
   inkscape:version="1.2.2 (732a01da63, 2022-12-09)"
   xmlns:inkscape="http://www.inkscape.org/namespaces/inkscape"
   xmlns:sodipodi="http://sodipodi.sourceforge.net/DTD/sodipodi-0.dtd"
   xmlns="http://www.w3.org/2000/svg"
   xmlns:svg="http://www.w3.org/2000/svg">
  <defs
     id="defs10" />
  <sodipodi:namedview
     id="namedview8"
     pagecolor="#ffffff"
     bordercolor="#000000"
     borderopacity="0.25"
     inkscape:showpageshadow="2"
     inkscape:pageopacity="0.0"
     inkscape:pagecheckerboard="0"
     inkscape:deskcolor="#d1d1d1"
     showgrid="false"
     inkscape:zoom="1.1845304"
     inkscape:cx="122.83349"
     inkscape:cy="124.52192"
     inkscape:window-width="1920"
     inkscape:window-height="991"
     inkscape:window-x="-9"
     inkscape:window-y="-9"
     inkscape:window-maximized="1"
     inkscape:current-layer="g4" />
  <g
     transform="matrix(1.0339933,-0.47388544,0.473916,1.03406,-3809.6556,-1794.8513)"
     id="g4">
    <path
       id="rect899"
       style="fill:#e9c6af;stroke-width:22.4372;stroke-linecap:square"
       d="m 1952.5155,3431.8093 -593.7386,39.5429 -658.16538,638.4338 -409.26985,796.3517 -133.39255,824.1424 211.59657,144.2786 657.66551,-162.1499 227.0233,-556.6861 603.5712,-342.3205 850.7069,399.6487 435.6907,173.7189 193.01,1191.7418 -296.9724,210.9207 -1031.5129,159.5851 -504.6102,129.9181 -282.9486,282.929 -53.4055,374.96 234.4478,175.5268 430.5889,-69.5455 474.2066,107.3372 1610.186,-432.4143 1220.7981,46.9258 846.1166,-321.827 1221.4477,417.6012 877.6374,-414.9124 255.6884,-392.228 L 8265.9017,5718.2172 7403.3948,5334.3457 6207.7158,4752.8713 4991.0243,4240.0327 3828.078,3613.87 Z"
       sodipodi:nodetypes="cccccccccccccccccccccccccccccccc" />
    <path
       d="m 1348.2132,3396.6405 c -54.356,34.961 -131.2028,95.9044 -228.9207,180.1143 -309.06108,266.3382 -545.54448,577.0616 -709.4499,932.1702 -164.66298,355.7614 -272.18267,744.1266 -323.421209,1167.1586 65.668089,175.7518 148.742159,250.6956 249.874979,225.5888 99.72244,-25.2115 225.82355,-42.7923 377.44115,-50.6793 151.6176,-7.887 259.4383,-46.6778 323.25268,-113.552 55.1135,-35.6138 112.01,-133.4899 169.9319,-292.9756 57.269,-160.2431 100.949,-252.0101 128.9766,-276.1633 41.6627,-35.9035 108.0047,-50.8308 199.6792,-44.0244 l 305.2737,-263.0743 c 142.9168,23.3734 345.22,106.4604 607.1188,246.4401 261.7944,141.3901 457.28,230.3521 585.8042,266.1285 94.742,137.4957 159.3137,308.9119 193.9242,511.4282 34.6105,202.5162 60.4198,399.4157 79.491,591.5608 -31.8989,76.3341 -76.9599,138.9284 -133.0151,187.2348 -56.0552,48.3065 -186.128,81.191 -390.9758,99.3066 -204.7433,16.7052 -342.391,56.1177 -412.8388,116.8271 -302.5824,16.5315 -515.9971,35.4291 -638.7293,55.3871 -123.4896,20.6108 -244.372,82.5389 -363.2999,185.0269 -63.6302,54.8343 -117.3628,119.6209 -162.6078,194.2551 -50.4515,154.3679 -78.4625,264.3151 -83.2755,329.1885 -4.8129,64.8735 10.538,125.5718 46.1573,180.6846 96.6253,112.1104 258.8939,151.8102 487.4587,119.8569 229.3223,-32.6061 372.5823,-42.5317 430.6421,-31.8398 258.7643,144.0012 578.8695,149.3326 959.5586,16.6469 380.6889,-132.6858 623.73,-225.959 729.8808,-280.4725 106.1508,-54.5135 327.2159,-52.2811 664.7102,5.3915 336.084,57.5679 586.7419,52.78 749.0483,-13.163 157.4768,-86.8633 311.1662,-170.4628 461.8255,-251.451 190.1498,-78.0564 396.0398,-71.9875 619.9422,16.2482 222.4921,88.1309 434.8772,169.1302 636.7117,239.4198 201.077,70.9423 369.5396,74.9414 506.0407,12.7548 135.7436,-61.5338 296.2756,-141.789 480.8384,-240.113 183.8053,-97.6712 314.7194,-180.1255 391.9846,-246.71 56.0552,-48.3064 95.8639,-87.8927 118.0156,-118.8634 37.1348,-424.0792 2.3698,-882.5669 -105.6009,-1376.978 -341.2692,-169.2706 -686.4556,-343.0864 -1034.2535,-519.9319 -1310.658,-569.524 -2117.8829,-928.667 -2421.7792,-1076.0191 -303.8963,-147.352 -641.1142,-342.556 -1010.1389,-586.9175 -260.9031,66.4219 -566.9841,72.7673 -916.9375,20.5509 -400.9069,-82.2335 -709.227,-141.2852 -923.5498,-177.0505 -60.9894,28.7963 -147.2861,45.0782 -258.9947,50.256 -112.3614,4.4203 -240.9944,8.3415 -385.7946,10.3534 z m 264.8277,817.3213 c 38.5489,15.6245 77.0727,22.0299 116.3289,18.5632 40.6666,-3.362 61.433,-25.2181 64.3626,-64.7063 172.0536,-111.3063 313.5727,-202.8996 424.4527,-273.3697 109.4696,-70.5748 230.1133,-100.6143 361.2784,-90.876 51.2422,16.567 105.5145,30.5229 163.5743,41.2149 58.7128,11.4493 90.5279,-15.9679 94.6879,-81.5988 244.0663,84.0605 526.6857,145.4583 848.4064,186.3611 322.4783,40.2501 626.7262,77.7285 912.091,111.678 829.7071,409.7353 1481.5855,721.8932 1954.773,938.5367 473.2922,215.2332 739.9705,357.695 800.6877,428.1427 96.6253,112.1104 199.5284,139.6033 308.7092,82.4786 190.2878,92.1213 380.471,185.6528 570.0012,278.4268 42.4368,49.2377 57.1348,109.1785 46.1573,180.6846 -12.388,71.4013 -5.7213,249.1538 19.347,532.5001 24.9638,284.7566 -15.2008,472.5038 -120.4936,563.2415 -56.0552,48.3064 -124.5152,82.2203 -204.7266,102.4992 -102.5013,-118.928 -236.738,-221.0684 -400.6472,-305.5588 -164.6667,-83.8378 -326.1735,-162.4777 -484.7299,-233.0992 l 235.4327,-258.3332 c 11.6305,-70.7485 19.4986,-129.0138 22.9513,-175.5536 3.3481,-45.1292 -14.1999,-76.2114 -51.9914,-92.4888 -46.2747,174.531 -130.4413,295.9075 -254.0147,365.4352 l 111.0475,-168.3039 c 23.1981,-45.0737 34.6695,-94.5631 35.2764,-150.5314 1.2598,-55.2109 -24.8552,-85.5111 -77.0392,-89.3853 -42.5876,134.3898 -147.9643,274.0445 -316.13,418.9638 l -158.3181,136.4331 c -81.442,46.4216 -136.5555,82.0354 -164.5831,106.1886 -377.6756,44.2806 -729.0895,-26.4789 -1053.589,-211.5212 -323.8466,-184.2849 -633.92,-449.0856 -930.3248,-792.9919 -66.5931,-77.2652 -134.7263,-162.4443 -202.9893,-255.4322 -68.1583,-94.3983 -123.887,-165.1847 -166.3238,-214.4224 74.3357,-27.0963 129.0308,-57.0689 163.8759,-87.0972 49.2377,-42.4313 89.0212,-91.2368 119.4553,-147.8268 31.1916,-57.2427 62.1236,-130.1034 95.7217,-219.7829 l -221.1908,190.6146 c -154.5306,133.1691 -291.9734,208.0483 -410.9179,224.7424 -258.1114,-143.2438 -520.14,-291.0326 -784.7802,-441.8513 56.0553,-48.3065 89.9587,-65.6422 102.3633,-51.2496 60.7007,-15.3462 115.291,-43.9085 164.5287,-86.3398 49.2377,-42.4314 71.6782,-86.8522 68.732,-133.1579 -140.8956,121.4189 -269.0892,167.2055 -384.6857,138.7702 -116.354,-27.7825 -199.0137,-70.0801 -247.3264,-126.1353 -54.1885,-62.8727 -61.257,-149.1902 -19.8998,-257.4375 -51.121,67.8167 -108.641,135.8672 -172.5601,204.1516 -120.6437,30.0395 -227.2088,51.9069 -319.5906,64.1919 -93.1393,12.9377 -169.2703,-21.7849 -229.046,-104.9253 -29.8943,135.3325 -114.584,263.7604 -254.722,384.5265 -56.0552,48.3065 -116.8898,94.131 -182.6084,138.8838 -65.7186,44.7529 -129.8176,86.7898 -191.7486,128.2788 -60.7006,15.3461 -131.0898,17.9194 -212.6824,9.0255 -81.5925,-8.894 -131.6295,-60.8231 -150.9729,-153.7241 76.3236,-53.8919 152.9403,-159.5214 230.6075,-317.5409 77.0143,-158.7772 140.519,-259.7078 188.9992,-301.4864 28.0276,-24.1532 76.9765,-53.1343 144.7834,-87.8057 z m 271.739,-747.7047 c 191.8657,-5.6078 534.219,43.9172 1028.3656,150.09 494.9041,105.52 830.8583,155.2789 1008.6202,148.624 l 429.1561,179.3409 c -63.9356,-17.5094 -115.1779,-34.0765 -152.9694,-50.3538 -192.8073,18.3004 -426.7205,-1.9025 -704.4559,-62.2287 -278.4929,-59.6733 -591.722,-129.0159 -940.445,-207.375 l -875.3716,387.3696 -744.26968,732.4745 c 34.4055,167.0494 93.33988,299.7595 177.56058,397.4774 36.5609,42.4201 67.1163,70.2138 92.2143,85.5488 -47.5219,114.8798 -87.4144,203.3829 -118.3716,267.0243 -30.9572,63.6414 -77.8722,122.5529 -140.74498,176.7345 -42.42,36.5561 -94.5287,60.3396 -158.4937,71.8982 -63.3122,12.3161 -115.471,17.661 -158.749,17.993 -42.5206,-0.3208 -79.03135,-24.3025 -108.12187,-71.8403 43.36177,-49.2488 91.81697,-100.2466 144.60767,-152.3406 52.7909,-52.0939 61.6006,-123.0519 25.1234,-214.3889 -35.0668,-91.2323 -29.0736,-200.6871 20.1474,-328.9123 48.4636,-127.5725 94.55,-251.7763 136.196,-373.4736 10.6888,-58.056 58.4115,-99.1817 141.6531,-122.0717 83.99908,-23.5428 135.89838,-44.5056 157.10838,-62.7837 l -140.1921,-98.3283 c 98.4754,-84.8627 243.8657,-228.6368 435.4135,-430.6696 192.3054,-202.6856 341.4832,-349.7237 446.0186,-439.8087 z M 293.92302,5278.1248 c 63.93564,17.5095 93.96786,52.3546 90.0966,104.5354 -3.21849,52.9384 -10.5884,94.933 -19.3939,127.6037 -9.74713,45.3633 -27.53806,84.4571 -53.47731,118.6918 -24.52888,34.3395 -59.65857,39.5305 -104.0833,17.0884 -2.02127,-144.7922 26.17385,-266.7792 86.85791,-367.9193 z m 449.7023,-1158.4919 c 49.2376,-42.4314 116.8396,-112.5695 202.1528,-211.1719 86.72358,-98.4977 158.11308,-171.8998 214.16828,-220.2062 62.8727,-54.1816 124.8039,-95.6705 185.7933,-124.4668 61.6423,-28.0388 134.5131,-35.391 218.7172,-23.467 l 68.1753,-58.7511 c 10.605,-9.1391 25.0477,-3.1035 43.3282,18.1065 L 930.22602,4251.895 c -61.157,126.6301 -143.6329,311.2359 -247.3231,552.4071 -103.0373,241.9287 -181.01831,404.1791 -232.42814,485.4459 l -39.9465,-130.5913 c -98.49208,-0.9312 -137.66454,-46.3814 -118.1702,-137.108 48.17471,-114.1223 73.25606,-184.5813 75.24403,-211.3768 50.17933,-55.124 100.35866,-110.2479 149.88519,-166.1294 l -66.25838,-33.9896 c 31.89885,-76.3341 82.52601,-166.1672 153.2919,-269.3949 69.3555,-103.3324 116.664,-177.1043 139.1045,-221.5251 z m 328.70918,615.7362 64.3375,-73.9256 z m -483.58838,544.792 c 39.4906,2.932 55.8124,21.8696 49.6184,57.5703 -5.541,36.458 -13.6936,69.8862 -22.4991,102.5569 -3.8714,52.1809 -45.0108,81.0328 -124.28071,88.619 z m -154.12504,481.3331 -41.66262,35.9034 c -45.36642,-9.7495 -93.99721,-23.2865 -145.23952,-39.8535 91.65786,-78.9876 153.92366,-77.2007 186.90214,3.9501 z M 2436.5541,4659.3979 c -54.3394,120.7549 -102.1961,192.359 -143.6745,216.2225 -47.2499,15.6358 -105.5189,7.7645 -175.5647,-22.9611 -69.9414,-32.136 -124.2388,-55.3111 -162.0301,-71.5885 38.7164,-82.2091 117.572,-122.4415 235.1564,-120.8018 118.2373,2.3973 199.8048,2.072 246.1129,-0.8711 z M 3570.1803,3591.3893 c 110.2437,14.5664 216.6999,32.3966 320.7791,53.5956 z m -1022.83,1046.4553 221.0439,193.6689 c 110.8967,15.3239 255.9771,76.4365 435.1367,184.7482 178.4021,108.9645 319.9293,179.7399 421.6564,213.5267 -73.394,14.4037 -171.5178,-10.6073 -294.2665,-76.4431 -122.8534,-64.4256 -204.4961,-91.7581 -244.9285,-81.9974 120.6605,55.7544 209.7192,97.818 266.3142,128.2541 56.5951,30.436 97.1528,66.7716 119.61,108.1446 -185.5211,25.2227 -364.3502,-1.526 -535.8343,-79.4886 -170.7267,-78.6154 -340.0137,-186.1941 -507.1035,-323.3891 40.7211,-23.2108 66.9491,-70.8956 78.5795,-141.6441 12.388,-71.4014 25.3995,-112.9771 39.7921,-125.3802 z m 126.2015,19.2962 c 115.8308,34.834 171.9027,72.3215 168.3202,111.0521 z m 1357.6063,682.2002 419.1072,591.9596 c 51.259,102.361 113.1229,195.5828 185.5919,279.6657 127.3105,147.713 269.3022,269.5729 426.6282,366.3372 156.5685,97.4171 297.129,171.6658 420.9241,223.3987 124.4478,52.4904 231.5025,90.927 321.7122,117.4775 90.2097,26.5504 142.2848,70.1224 157.7402,129.4104 l -1068.8903,463.0486 -950.569,-61.3574 c -146.9426,-227.164 -270.3817,-427.0579 -369.0117,-598.1666 -98.6299,-171.1089 -125.4603,-344.6863 -79.943,-518.5644 -74.457,-57.2873 -88.1338,-140.5502 -40.3775,-249.0314 46.9987,-107.8283 56.8547,-192.8892 28.7057,-253.1196 -94.6373,-138.906 -193.0622,-274.548 -294.6217,-406.1686 307.5165,2.9787 589.0228,-25.7532 843.0037,-84.8897 z M 2315.1627,6964.6603 c 177.9166,249.3165 308.6126,485.2007 390.5732,708.9582 8.7888,-118.4646 -17.7068,-248.7662 -79.4871,-390.905 -61.7801,-142.1388 -109.2516,-247.7636 -143.9292,-315.5691 l 91.7582,-42.1105 c 126.5197,-23.222 233.0848,-45.0893 319.6953,-65.6021 87.2635,-19.7553 157.9371,2.5086 212.1256,65.3813 24.1564,28.0277 43.5836,72.0119 58.9344,132.7101 -79.3032,-164.0016 -39.7455,-295.7804 118.6731,-395.3364 108.377,125.7455 187.0567,259.9215 235.3859,401.7706 66.5932,77.2653 132.7678,160.1717 197.6618,250.7825 66.3043,90.7154 99.806,164.8149 102.4634,224.5707 -375.6709,103.2789 -753.9534,203.5279 -1135.5002,299.9894 -76.219,52.4817 -188.66,67.5315 -337.8712,42.9817 -149.2111,-24.5497 -259.2456,-41.9366 -331.4092,-53.6756 -74.641,-45.2474 -205.0235,-46.4193 -388.2219,-4.7165 -183.9559,42.3556 -302.3229,32.1495 -357.1643,-31.4808 -30.0322,-34.8451 -52.9581,-89.0155 -66.7145,-161.649 12.6601,-170.6454 81.8106,-309.4444 208.3137,-418.4603 112.1103,-96.6128 249.6829,-163.6831 413.3703,-200.4533 164.445,-37.4229 327.9734,-52.934 491.3427,-47.1859 z m 963.4396,-1306.8246 c 67.6395,63.1623 101.8943,174.8963 103.7314,331.7284 z m 356.6438,1433.9042 -142.0083,-207.6538 z m 1594.3962,-511.9523 -271.8971,-186.8091 z m 874.772,547.797 c 250.2309,77.4279 462.1473,145.6299 634.9917,205.2587 172.9489,58.2185 318.2888,134.9491 436.1242,228.7813 -176.8368,-91.8316 -356.8879,-169.0122 -539.3956,-232.1945 -182.5077,-63.1824 -367.5767,-110.9563 -555.1025,-144.732 z m 264.7744,-118.6028 c 175.7739,20.1407 348.568,61.3309 517.7295,122.8134 169.1615,61.4824 296.5055,141.8401 381.3791,240.3155 z m 511.1636,-257.0054 c 170.9444,-0.7798 342.0142,44.5367 512.4521,136.6022 169.785,91.308 339.3063,205.2855 506.3961,342.4804 -51.2256,69.2268 -100.6726,114.4788 -148.4455,137.166 -47.7729,22.6872 -118.1118,43.6991 -211.0167,63.0354 -90.7495,-105.2929 -260.0365,-212.8716 -508.5138,-323.4937 -247.0669,-110.5174 -380.9689,-169.382 -399.5382,-177.142 103.5937,-77.3923 186.7349,-137.1593 248.666,-178.6483 z M 4319.0166,5970.4791 c -105.4142,6.3542 -196.4903,20.1542 -273.4375,44.2205 -77.6,23.3088 -144.6243,66.5467 -201.6212,127.5458 151.601,-93.681 309.7014,-150.7187 475.0587,-171.7663 z"
       fill="#1f1a17"
       id="path2"
       inkscape:export-filename="path2.svg"
       inkscape:export-xdpi="96"
       inkscape:export-ydpi="96" />
  </g>
</svg>
